<svg width="512" height="512" viewBox="0 0 512 512" fill="none" xmlns="http://www.w3.org/2000/svg">
<g clip-path="url(#clip0_112_191)">
<path d="M0 178.735C0 116.172 0 84.8901 12.1756 60.9942C22.8855 39.9748 39.9748 22.8855 60.9942 12.1756C84.8901 0 116.172 0 178.735 0H333.265C395.828 0 427.11 0 451.006 12.1756C472.025 22.8855 489.114 39.9748 499.824 60.9942C512 84.8901 512 116.172 512 178.735V333.265C512 395.828 512 427.11 499.824 451.006C489.114 472.025 472.025 489.114 451.006 499.824C427.11 512 395.828 512 333.265 512H178.735C116.172 512 84.8901 512 60.9942 499.824C39.9748 489.114 22.8855 472.025 12.1756 451.006C0 427.11 0 395.828 0 333.265V178.735Z" fill="white"/>
<path d="M178.734 0.5H333.266C364.555 0.5 387.992 0.500638 406.595 2.02051C425.191 3.53991 438.913 6.57533 450.778 12.6211C471.704 23.2831 488.717 40.2963 499.379 61.2217C505.425 73.0873 508.46 86.8087 509.979 105.405C511.499 124.008 511.5 147.445 511.5 178.734V333.266C511.5 364.555 511.499 387.992 509.979 406.595C508.46 425.191 505.425 438.913 499.379 450.778C488.717 471.704 471.704 488.717 450.778 499.379C438.913 505.425 425.191 508.46 406.595 509.979C387.992 511.499 364.555 511.5 333.266 511.5H178.734C147.445 511.5 124.008 511.499 105.405 509.979C86.8087 508.46 73.0873 505.425 61.2217 499.379C40.2963 488.717 23.2831 471.704 12.6211 450.778C6.57533 438.913 3.53991 425.191 2.02051 406.595C0.500638 387.992 0.5 364.555 0.5 333.266V178.734C0.5 147.445 0.50064 124.008 2.02051 105.405C3.53991 86.8087 6.57533 73.0873 12.6211 61.2217C23.2831 40.2963 40.2963 23.2831 61.2217 12.6211C73.0873 6.57533 86.8087 3.53991 105.405 2.02051C124.008 0.50064 147.445 0.5 178.734 0.5Z" stroke="black" stroke-opacity="0.1"/>
<path d="M448 415.332L412.004 424.948L349.288 191.564L278.767 454L217.812 227.175L172.191 396.95L103.825 254.059L63.4848 297.99L36 272.898L113.664 188.324L162.335 290.054L217.814 83.6094L278.767 310.436L349.289 48L448 415.332Z" fill="black"/>
</g>
<defs>
<clipPath id="clip0_112_191">
<rect width="512" height="512" fill="white"/>
</clipPath>
</defs>
</svg>
